<svg xmlns="http://www.w3.org/2000/svg" viewBox="0 0 32 32" fill="none">
  <defs>
    <linearGradient id="fvg" x1="10%" y1="90%" x2="90%" y2="10%">
      <stop offset="0%" stop-color="#16A34A"/>
      <stop offset="50%" stop-color="#22C55E"/>
      <stop offset="100%" stop-color="#4ADE80"/>
    </linearGradient>
  </defs>
  <rect width="32" height="32" rx="8" fill="#09090b"/>
  <!-- Speech bubble scaled for 32px -->
  <g transform="translate(3, 4) scale(0.4)">
    <path d="M12 28C12 18.06 20.06 10 30 10H34C43.94 10 52 18.06 52 28V30C52 39.94 43.94 48 34 48H28L18 54V46.5C14.4 43.3 12 38.9 12 34V28Z" fill="url(#fvg)"/>
    <path d="M46 12L48.5 7L51 12L56 14.5L51 17L48.5 22L46 17L41 14.5Z" fill="#4ADE80"/>
    <path d="M38 6L39.2 3.5L40.4 6L43 7.2L40.4 8.4L39.2 11L38 8.4L35.5 7.2Z" fill="#86EFAC" opacity="0.6"/>
  </g>
</svg>
