<svg xmlns="http://www.w3.org/2000/svg" viewBox="0 0 64 64" fill="none">
  <defs>
    <linearGradient id="g1" x1="10%" y1="90%" x2="90%" y2="10%">
      <stop offset="0%" stop-color="#16A34A"/>
      <stop offset="50%" stop-color="#22C55E"/>
      <stop offset="100%" stop-color="#4ADE80"/>
    </linearGradient>
    <linearGradient id="g2" x1="50%" y1="100%" x2="50%" y2="0%">
      <stop offset="0%" stop-color="#22C55E"/>
      <stop offset="100%" stop-color="#86EFAC"/>
    </linearGradient>
    <linearGradient id="g3" x1="0%" y1="100%" x2="100%" y2="0%">
      <stop offset="0%" stop-color="#22C55E" stop-opacity="0.6"/>
      <stop offset="100%" stop-color="#A78BFA" stop-opacity="0.8"/>
    </linearGradient>
  </defs>

  <!-- Speech bubble body — rounded, friendly, slightly tilted for dynamism -->
  <path d="M12 28C12 18.06 20.06 10 30 10H34C43.94 10 52 18.06 52 28V30C52 39.94 43.94 48 34 48H28L18 54V46.5C14.4 43.3 12 38.9 12 34V28Z" fill="url(#g1)"/>

  <!-- Inner glow / highlight on bubble -->
  <path d="M16 27C16 20.37 21.37 15 28 15H36C42.63 15 48 20.37 48 27V30C48 36.63 42.63 42 36 42H28C21.37 42 16 36.63 16 30V27Z" fill="white" opacity="0.06"/>

  <!-- Creative spark — 4-pointed star bursting from top-right of bubble -->
  <path d="M46 12L48.5 7L51 12L56 14.5L51 17L48.5 22L46 17L41 14.5Z" fill="url(#g2)"/>

  <!-- Small secondary spark -->
  <path d="M38 6L39.2 3.5L40.4 6L43 7.2L40.4 8.4L39.2 11L38 8.4L35.5 7.2Z" fill="#4ADE80" opacity="0.7"/>

  <!-- Tiny accent spark -->
  <circle cx="55" cy="9" r="1.5" fill="#86EFAC" opacity="0.5"/>

  <!-- AI circuit lines inside bubble — subtle, showing intelligence -->
  <g opacity="0.35" stroke="#052e16" stroke-width="1.2" stroke-linecap="round">
    <path d="M24 26H32L36 30"/>
    <path d="M28 32H36"/>
    <circle cx="24" cy="26" r="1.5" fill="#052e16"/>
    <circle cx="36" cy="30" r="1.5" fill="#052e16"/>
    <circle cx="28" cy="32" r="1.5" fill="#052e16"/>
    <circle cx="36" cy="32" r="1.5" fill="#052e16"/>
  </g>

  <!-- Subtle sparkle dots around bubble for magic/muse feel -->
  <circle cx="10" cy="20" r="1" fill="#4ADE80" opacity="0.3"/>
  <circle cx="56" cy="38" r="0.8" fill="#A78BFA" opacity="0.3"/>
</svg>
